<?xml version="1.0" encoding="utf-8"?>
<!-- Generator: Adobe Illustrator 25.4.1, SVG Export Plug-In . SVG Version: 6.00 Build 0)  -->
<svg version="1.0" id="katman_1" xmlns="http://www.w3.org/2000/svg" xmlns:xlink="http://www.w3.org/1999/xlink" x="0px" y="0px"
	 viewBox="0 0 1700 1200" style="enable-background:new 0 0 1700 1200;" xml:space="preserve">
<g>
	<path d="M621.2,536.6v200.9h-51.9V588.4H455.4v42.7h106.7V683H455.4v54.4h-51.9V536.6h9.6v-0.1H614v0.1H621.2z M621.2,536.6"/>
	<path d="M889.8,536.2v51.9h-82.9v149.5H755V588.1h-82.8v-51.9H889.8z M889.8,536.2"/>
	<path d="M1159.3,536.5v128.9h-89l-40-26.2v-22.4h77v-28.5H993.6V629l165.7,100.8v7.5h-94.6l-71.2-42.3v42.3h-51.9V536.5H1159.3z
		 M1159.3,536.5"/>
	<rect x="1210.2" y="536.5" width="51.9" height="200.9"/>
	<path d="M1313.7,536.3h60.4v80l75.5,39.3v6.7l-135.9-31.8V536.3z M1313.7,536.3"/>
	<path d="M1373.7,737.7h-60.4v-70.3l60.4-16.8V737.7z M1373.7,737.7"/>
	<path d="M1529.5,607.1l-60.4,16.7v-87.1h60.4V607.1z M1529.5,607.1"/>
	<path d="M1529.5,737.7h-60.4v-80.1l-75.6-39.3v-7.8l136,32.9V737.7z M1529.5,737.7"/>
	<path d="M352.6,737.4V536.5H290l-45.7,83.7l-45.8-83.7h-62v200.9H189v-96.8l-1.1-1.9l1.1-1.8v3.7l55.3,83.5l55.3-83.5v-3.7l1.1,1.8
		l-1.1,1.9v96.8H352.6z M352.6,737.4"/>
</g>
</svg>
